<svg width="96" height="21" viewBox="0 0 96 21" fill="none" xmlns="http://www.w3.org/2000/svg">
<path d="M72.8841 0.904526C74.1996 0.904526 74.9836 1.77651 74.9836 3.03719C74.9836 4.29786 74.1996 5.10144 72.8841 5.10144C71.5 5.10144 70.7613 4.25273 70.7613 3.03719C70.7613 1.82164 71.5 0.904526 72.8841 0.904526Z" fill="#142800"/>
<path d="M74.7398 6.75807H71.0037V20.5906H74.7398V6.75807Z" fill="#142800"/>
<path d="M36.9172 4.68364V20.592H40.9497V4.68364H46.4334V2.03564H32.1314V4.68364H36.9172Z" fill="#142800"/>
<path d="M53.437 10.4236C52.9363 10.2926 52.4092 10.214 51.8559 10.214C50.0104 10.214 48.9826 11.3146 48.9826 13.5695V20.5935H45.2655V6.75517H48.7709V10.5547C49.4571 7.96052 51.2485 6.38686 53.437 6.36211V10.4236Z" fill="#142800"/>
<path d="M81.3521 20.5906V2.06185H77.6408V20.5906H81.3521Z" fill="#142800"/>
<path d="M93.1254 10.923C92.9181 10.5401 91.9706 9.0072 89.928 9.0072C88.0038 9.0072 87.5599 9.89084 87.6183 10.4804C87.7074 11.2461 88.122 11.629 90.5792 12.1603C93.9255 12.8373 95.9388 13.9276 95.9388 16.58C95.9388 19.6443 93.0962 20.9996 89.6317 20.9996C87.8256 20.9996 84.7465 20.4989 83.2369 17.7883L85.8722 16.021C85.8722 16.021 87.2052 18.0838 89.5733 18.0838C91.7647 18.0838 91.972 17.1113 92.0012 16.7576C92.0611 16.168 91.883 15.5493 89.3951 14.9889C85.8722 14.2231 83.7698 13.4268 83.7698 10.5095C83.7698 9.0072 85.1028 6.2966 89.839 6.2966C94.2436 6.2966 95.5003 8.71778 95.7498 9.19845C95.7685 9.23461 95.7816 9.25982 95.7899 9.27215L93.1254 10.9215V10.923Z" fill="#142800"/>
<path fill-rule="evenodd" clip-rule="evenodd" d="M61.0348 12.6145C57.0739 13.3817 54.6211 14.3571 54.6211 17.4272L54.6196 17.4258C54.6196 19.6691 56.3336 20.9982 58.9047 20.9982C61.3283 20.9982 62.9547 19.8161 63.8409 17.7795C63.9592 19.9937 64.9636 20.9982 67.2106 20.9982C68.2749 20.9982 68.7188 20.7915 69.221 20.4668V17.9862C68.9553 18.1042 68.7479 18.193 68.364 18.193C67.4179 18.193 67.2412 17.8086 67.2412 16.5101V11.6392C67.2412 8.03768 64.9943 6.29515 61.448 6.29515C58.3163 6.29515 56.1584 7.74216 54.9466 10.872L58.1981 11.8168C58.7003 10.2519 59.439 9.18917 61.2713 9.18917C63.1036 9.18917 63.8132 9.92723 63.8132 10.8429C63.8132 11.9653 62.6014 12.2899 61.0348 12.6145ZM63.9314 13.5899V14.4459C63.9314 15.9817 62.7196 18.2847 60.1778 18.2847C58.7587 18.2847 58.1674 17.7533 58.1674 16.7794C58.1674 15.657 58.9368 15.1548 61.3005 14.5943C62.8087 14.2697 63.6059 14.0033 63.9314 13.5899Z" fill="#142800"/>
<path fill-rule="evenodd" clip-rule="evenodd" d="M0.481684 20.592L0.482185 20.5906H3.69659L4.90984 16.7125H12.9223L14.1881 20.5906H18.4586L11.9485 2.03709H6.86039L0.482185 20.5906H0.480225L0.481684 20.592ZM8.17876 6.33591L5.75372 14.0674H12.0536L9.49713 6.33591L8.83868 4.26584H8.78612L8.18022 6.33591H8.17876Z" fill="#142800"/>
<path d="M19.8718 20.592V2.03709H23.589V20.592H19.8718Z" fill="#142800"/>
<path d="M26.4914 20.592V2.03709H30.2086V20.592H26.4914Z" fill="#142800"/>
</svg>
