<svg width="81" height="17" viewBox="0 0 81 17" fill="none" xmlns="http://www.w3.org/2000/svg">
<path d="M4.98817 16.5C4.10084 16.5 3.35651 16.3387 2.75517 16.016C2.16117 15.686 1.71017 15.2533 1.40217 14.718C1.10151 14.1827 0.951172 13.596 0.951172 12.958C0.951172 12.3347 1.06851 11.7957 1.30317 11.341C1.54517 10.879 1.88251 10.4977 2.31517 10.197C2.74784 9.889 3.26484 9.647 3.86617 9.471C4.43084 9.317 5.06151 9.185 5.75817 9.075C6.46217 8.95767 7.17351 8.85133 7.89217 8.756C8.61084 8.66067 9.28184 8.569 9.90517 8.481L9.20117 8.888C9.22317 7.832 9.01051 7.051 8.56317 6.545C8.12317 6.039 7.36051 5.786 6.27517 5.786C5.55651 5.786 4.92584 5.951 4.38317 6.281C3.84784 6.60367 3.47017 7.13167 3.25017 7.865L1.39117 7.304C1.67717 6.26267 2.23084 5.445 3.05217 4.851C3.87351 4.257 4.95517 3.96 6.29717 3.96C7.37517 3.96 8.29917 4.15433 9.06917 4.543C9.84651 4.92433 10.4038 5.50367 10.7412 6.281C10.9098 6.64767 11.0162 7.04733 11.0602 7.48C11.1042 7.90533 11.1262 8.35267 11.1262 8.822V16.17H9.38817V13.321L9.79517 13.585C9.34784 14.5457 8.72084 15.2717 7.91417 15.763C7.11484 16.2543 6.13951 16.5 4.98817 16.5ZM5.28517 14.861C5.98917 14.861 6.59784 14.7363 7.11117 14.487C7.63184 14.2303 8.04984 13.8967 8.36517 13.486C8.68051 13.068 8.88584 12.6133 8.98117 12.122C9.09117 11.7553 9.14984 11.3483 9.15717 10.901C9.17184 10.4463 9.17917 10.098 9.17917 9.856L9.86117 10.153C9.22317 10.241 8.59617 10.3253 7.98017 10.406C7.36417 10.4867 6.78117 10.5747 6.23117 10.67C5.68117 10.758 5.18617 10.8643 4.74617 10.989C4.42351 11.0917 4.11917 11.2237 3.83317 11.385C3.55451 11.5463 3.32717 11.7553 3.15117 12.012C2.98251 12.2613 2.89817 12.573 2.89817 12.947C2.89817 13.2697 2.97884 13.5777 3.14017 13.871C3.30884 14.1643 3.56551 14.4027 3.91017 14.586C4.26217 14.7693 4.72051 14.861 5.28517 14.861Z" fill="#656E5E"/>
<path d="M20.3992 16.17C19.6952 16.3093 18.9985 16.3643 18.3092 16.335C17.6272 16.313 17.0185 16.1773 16.4832 15.928C15.9478 15.6713 15.5408 15.2753 15.2622 14.74C15.0275 14.2707 14.8992 13.7977 14.8772 13.321C14.8625 12.837 14.8552 12.2907 14.8552 11.682V0.989999H16.8132V11.594C16.8132 12.078 16.8168 12.4923 16.8242 12.837C16.8388 13.1817 16.9158 13.4787 17.0552 13.728C17.3192 14.1973 17.7372 14.4723 18.3092 14.553C18.8885 14.6337 19.5852 14.6117 20.3992 14.487V16.17ZM12.4462 5.907V4.29H20.3992V5.907H12.4462Z" fill="#656E5E"/>
<path d="M26.9954 16.17V0H28.9534V16.17H26.9954Z" fill="#656E5E"/>
<path d="M36.5439 16.478C35.7812 16.478 35.1249 16.357 34.5749 16.115C34.0322 15.873 33.5812 15.5503 33.2219 15.147C32.8626 14.7437 32.5802 14.2963 32.3749 13.805C32.1696 13.3137 32.0229 12.8113 31.9349 12.298C31.8542 11.7847 31.8139 11.3043 31.8139 10.857V4.29H33.7939V10.241C33.7939 10.7983 33.8452 11.3373 33.9479 11.858C34.0506 12.3787 34.2229 12.848 34.4649 13.266C34.7142 13.684 35.0442 14.014 35.4549 14.256C35.8729 14.498 36.3936 14.619 37.0169 14.619C37.5082 14.619 37.9556 14.5347 38.3589 14.366C38.7622 14.1973 39.1069 13.948 39.3929 13.618C39.6789 13.2807 39.8989 12.8553 40.0529 12.342C40.2069 11.8287 40.2839 11.231 40.2839 10.549L41.5709 10.945C41.5709 12.089 41.3619 13.0753 40.9439 13.904C40.5332 14.7327 39.9502 15.3707 39.1949 15.818C38.4469 16.258 37.5632 16.478 36.5439 16.478ZM40.5039 16.17V12.991H40.2839V4.29H42.2529V16.17H40.5039Z" fill="#656E5E"/>
<path d="M53.5717 16.17V10.219C53.5717 9.65433 53.5204 9.11167 53.4177 8.591C53.3224 8.07033 53.1501 7.60467 52.9007 7.194C52.6587 6.776 52.3287 6.446 51.9107 6.204C51.5001 5.962 50.9794 5.841 50.3487 5.841C49.8574 5.841 49.4101 5.92533 49.0067 6.094C48.6107 6.25533 48.2697 6.50467 47.9837 6.842C47.6977 7.17933 47.4741 7.60467 47.3127 8.118C47.1587 8.624 47.0817 9.22167 47.0817 9.911L45.7947 9.515C45.7947 8.36367 46.0001 7.37733 46.4107 6.556C46.8287 5.72733 47.4117 5.093 48.1597 4.653C48.9151 4.20567 49.8024 3.982 50.8217 3.982C51.5917 3.982 52.2481 4.103 52.7907 4.345C53.3334 4.587 53.7844 4.90967 54.1437 5.313C54.5031 5.709 54.7854 6.15633 54.9907 6.655C55.1961 7.14633 55.3391 7.64867 55.4197 8.162C55.5077 8.668 55.5517 9.14833 55.5517 9.603V16.17H53.5717ZM45.1017 16.17V4.29H46.8617V7.469H47.0817V16.17H45.1017Z" fill="#656E5E"/>
<path d="M63.0891 16.5C61.8865 16.5 60.8635 16.2323 60.0201 15.697C59.1841 15.1543 58.5461 14.41 58.1061 13.464C57.6661 12.518 57.4388 11.44 57.4241 10.23C57.4388 8.99067 57.6698 7.90167 58.1171 6.963C58.5718 6.017 59.2208 5.28 60.0641 4.752C60.9075 4.224 61.9231 3.96 63.1111 3.96C64.3651 3.96 65.4431 4.268 66.3451 4.884C67.2545 5.5 67.8631 6.34333 68.1711 7.414L66.2351 7.997C65.9858 7.30767 65.5788 6.77233 65.0141 6.391C64.4568 6.00967 63.8151 5.819 63.0891 5.819C62.2751 5.819 61.6041 6.00967 61.0761 6.391C60.5481 6.765 60.1558 7.28567 59.8991 7.953C59.6425 8.613 59.5105 9.372 59.5031 10.23C59.5178 11.55 59.8221 12.617 60.4161 13.431C61.0175 14.2377 61.9085 14.641 63.0891 14.641C63.8665 14.641 64.5118 14.465 65.0251 14.113C65.5385 13.7537 65.9271 13.2367 66.1911 12.562L68.1711 13.079C67.7605 14.1863 67.1188 15.0333 66.2461 15.62C65.3735 16.2067 64.3211 16.5 63.0891 16.5Z" fill="#656E5E"/>
<path d="M78.6552 16.17V10.219C78.6552 9.65433 78.6038 9.11167 78.5012 8.591C78.4058 8.07033 78.2335 7.60467 77.9842 7.194C77.7422 6.776 77.4122 6.446 76.9942 6.204C76.5835 5.962 76.0628 5.841 75.4322 5.841C74.9408 5.841 74.4935 5.92533 74.0902 6.094C73.6942 6.25533 73.3532 6.50467 73.0672 6.842C72.7812 7.17933 72.5575 7.60467 72.3962 8.118C72.2422 8.624 72.1652 9.22167 72.1652 9.911L70.8782 9.515C70.8782 8.36367 71.0835 7.37733 71.4942 6.556C71.9122 5.72733 72.4952 5.093 73.2432 4.653C73.9985 4.20567 74.8858 3.982 75.9052 3.982C76.6752 3.982 77.3315 4.103 77.8742 4.345C78.4168 4.587 78.8678 4.90967 79.2272 5.313C79.5865 5.709 79.8688 6.15633 80.0742 6.655C80.2795 7.14633 80.4225 7.64867 80.5032 8.162C80.5912 8.668 80.6352 9.14833 80.6352 9.603V16.17H78.6552ZM70.1852 16.17V0.329999H71.9452V9.075H72.1652V16.17H70.1852Z" fill="#656E5E"/>
</svg>
