<svg width="31" height="24" viewBox="0 0 31 24" fill="none" xmlns="http://www.w3.org/2000/svg">
<path fill-rule="evenodd" clip-rule="evenodd" d="M25.1061 7.41252C24.2619 5.80039 23.6095 5.03193 22.7626 5.03193C21.817 5.03193 21.4004 5.53238 20.8303 6.42665C20.3699 7.02692 19.9258 7.84871 19.1858 7.76667C18.4047 7.68463 17.9524 5.83868 17.3632 4.29355C16.5546 2.18779 16.0887 0 14.7456 0C13.9796 0 13.3094 0.697359 12.2707 2.25753L1.53887 18.7138C0.305484 20.7745 -0.726446 22.2102 0.579569 23.5598C2.11444 25.0366 5.71866 22.4522 8.18542 20.8934C10.6522 19.3346 13.1738 17.8169 16.7369 17.8989C21.5334 18.0083 23.8631 22.8214 26.7684 23.7376C28.7418 24.3666 30.5507 23.6419 30.9345 21.6045C31.1606 20.4846 30.7686 19.3975 30.2273 18.238L25.1061 7.41252ZM24.7771 17.0648C23.8041 17.7895 22.4474 16.6272 21.5704 16.135C20.6385 15.6154 19.0625 14.3711 16.2394 14.4121C13.9371 14.4394 12.69 15.3009 11.3196 16.2307C8.34576 18.2544 5.65973 20.6063 4.89229 19.3893C4.39894 18.6099 5.72825 17.0511 8.85282 12.1833C11.0729 8.72383 12.6366 5.96174 13.7452 5.96174C14.9704 5.96174 15.0389 7.16366 15.2253 8.39566C15.5775 10.3578 16.5368 11.3793 17.7825 11.5406C19.179 11.7293 20.3863 10.5575 21.3456 10.5698C22.2419 10.5889 22.8311 11.8866 23.5712 13.2403C24.5085 14.9221 25.487 16.5315 24.7771 17.0648Z" fill="#142800"/>
</svg>
